<svg viewBox="0 0 55 15"
     xmlns="http://www.w3.org/2000/svg">
    <path d="m6.17958,0l-6.18,14.077h7.398l0.917,-2.244h2.097l0.917,2.244h8.143v-1.713l0.725,1.713h4.212l0.726,-1.749v1.749h16.935l2.059,-2.186l1.929,2.186l8.698,0.018l-6.199,-7.017l6.199,-7.078h-8.564l-2.004,2.146l-1.868,-2.146h-18.423l-1.582,3.633l-1.619,-3.633h-7.382v1.655l-0.821,-1.655h-6.313zm1.432,1.999h3.606l4.099,9.546v-9.546h3.951l3.166,6.844l2.917,-6.844h3.931v10.101h-2.392l-0.019,-7.915l-3.487,7.915h-2.14l-3.506,-7.915v7.915h-4.92l-0.933,-2.264h-5.039l-0.931,2.262h-2.636l4.333,-10.099zm33.582,0h-9.725v10.096h9.574l3.086,-3.346l2.974,3.346h3.11l-4.52,-5.019l4.52,-5.077h-2.975l-3.07,3.307l-2.974,-3.307zm-31.827,1.709l-1.66,4.035h3.318l-1.658,-4.035zm24.504,2.226v-1.844v-0.002h6.068l2.648,2.949l-2.765,2.966h-5.951v-2.014h5.305v-2.055h-5.305z"
          fill="#1C1C1C"
          fill-rule="evenodd"/>
</svg>
