<svg viewBox="0 0 43 27"
     xmlns="http://www.w3.org/2000/svg">
    <path d="m25.754,13.5509c0,7.194,-5.765,13.027,-12.877,13.027c-7.112,0,-12.877,-5.833,-12.877,-13.027c0,-7.194,5.765,-13.026,12.877,-13.026c7.112,0,12.877,5.832,12.877,13.026z"
          fill="#1C1C1C"/>
    <path d="m42.4596,13.5509c0,7.194,-5.765,13.027,-12.877,13.027c-7.112,0,-12.877,-5.833,-12.877,-13.027c0,-7.194,5.765,-13.026,12.877,-13.026c7.112,0,12.877,5.832,12.877,13.026z"
          fill="#8C8C8C"/>
    <path d="m21.2298,23.4655c2.769,-2.389,4.524,-5.944,4.524,-9.914c0,-3.971,-1.755,-7.526,-4.524,-9.915c-2.769,2.389,-4.524,5.944,-4.524,9.915c0,3.97,1.755,7.525,4.524,9.914z"
          fill="#DDD"/>
</svg>
