<svg viewBox="0 0 68 18"
     xmlns="http://www.w3.org/2000/svg">
    <path d="m8.10423,0.000610352h-5.253c-0.359,0,-0.665,0.261,-0.721,0.616l-2.125,13.47c-0.042,0.266,0.164,0.505,0.433,0.505h2.508c0.36,0,0.665,-0.261,0.722,-0.616l0.573,-3.633c0.055,-0.356,0.361,-0.617,0.72,-0.617h1.663c3.46,0,5.457,-1.675,5.979,-4.993c0.235,-1.451,0.01,-2.592,-0.67,-3.391c-0.747,-0.877,-2.071,-1.341,-3.829,-1.341zm0.606,4.92c-0.287,1.885,-1.727,1.885,-3.12,1.885h-0.793l0.556,-3.521c0.034,-0.212,0.218,-0.369,0.433,-0.369h0.363c0.949,0,1.844,0,2.306,0.541c0.276,0.322,0.36,0.802,0.255,1.464zm15.096,-0.06h-2.515c-0.215,0,-0.4,0.156,-0.433,0.369l-0.111,0.704l-0.176,-0.255c-0.545,-0.791,-1.759,-1.055,-2.971,-1.055c-2.78,0,-5.154,2.105,-5.616,5.059c-0.241,1.473,0.101,2.881,0.937,3.864c0.766,0.903,1.863,1.279,3.168,1.279c2.24,0,3.482,-1.44,3.482,-1.44l-0.112,0.699c-0.043,0.268,0.163,0.507,0.431,0.507h2.266c0.36,0,0.665,-0.261,0.721,-0.617l1.36,-8.609c0.043,-0.265,-0.162,-0.505,-0.431,-0.505zm-3.506,4.896c-0.243,1.437,-1.384,2.402,-2.838,2.402c-0.731,0,-1.314,-0.235,-1.689,-0.679c-0.372,-0.441,-0.513,-1.068,-0.395,-1.767c0.226,-1.425,1.386,-2.421,2.819,-2.421c0.714,0,1.295,0.237,1.677,0.685c0.384,0.452,0.536,1.084,0.426,1.78zm16.903,-4.896h-2.528c-0.241,0,-0.467,0.12,-0.604,0.32l-3.486,5.136l-1.478,-4.935c-0.093,-0.309,-0.378,-0.521,-0.701,-0.521h-2.484c-0.302,0,-0.511,0.295,-0.415,0.579l2.784,8.171l-2.617,3.695c-0.206,0.291,0.001,0.692,0.357,0.692h2.524c0.24,0,0.464,-0.117,0.6,-0.314l8.408,-12.135c0.201,-0.291,-0.006,-0.688,-0.36,-0.688zm8.369,-4.859h-5.254c-0.358,0,-0.664,0.261,-0.72,0.616l-2.125,13.47c-0.042,0.266,0.164,0.505,0.432,0.505h2.696c0.25,0,0.465,-0.182,0.504,-0.431l0.603,-3.818c0.055,-0.356,0.362,-0.617,0.72,-0.617h1.662c3.461,0,5.458,-1.675,5.98,-4.993c0.236,-1.451,0.009,-2.592,-0.671,-3.391c-0.745,-0.877,-2.069,-1.341,-3.827,-1.341zm0.606,4.92c-0.286,1.885,-1.727,1.885,-3.12,1.885h-0.792l0.557,-3.521c0.033,-0.212,0.216,-0.369,0.432,-0.369h0.363c0.948,0,1.843,0,2.306,0.541c0.276,0.322,0.359,0.802,0.254,1.464zm15.096,-0.06h-2.514c-0.216,0,-0.4,0.156,-0.432,0.369l-0.111,0.704l-0.177,-0.255c-0.545,-0.791,-1.758,-1.055,-2.97,-1.055c-2.78,0,-5.153,2.105,-5.616,5.059c-0.239,1.473,0.101,2.881,0.937,3.864c0.768,0.903,1.863,1.279,3.168,1.279c2.24,0,3.482,-1.44,3.482,-1.44l-0.113,0.699c-0.042,0.268,0.164,0.507,0.434,0.507h2.265c0.358,0,0.664,-0.261,0.72,-0.617l1.361,-8.609c0.041,-0.265,-0.165,-0.505,-0.434,-0.505zm-3.506,4.896c-0.242,1.437,-1.384,2.402,-2.838,2.402c-0.729,0,-1.315,-0.235,-1.69,-0.679c-0.371,-0.441,-0.511,-1.068,-0.394,-1.767c0.228,-1.425,1.386,-2.421,2.819,-2.421c0.714,0,1.295,0.237,1.677,0.685c0.385,0.452,0.537,1.084,0.426,1.78zm6.471,-9.385l-2.156,13.716c-0.042,0.266,0.164,0.505,0.432,0.505h2.167c0.361,0,0.666,-0.261,0.722,-0.616l2.126,-13.469c0.042,-0.266,-0.164,-0.507,-0.432,-0.507h-2.427c-0.214,0.001,-0.399,0.158,-0.432,0.371z"
          fill="#1C1C1C"/>
</svg>
