<svg viewBox="0 0 47 16"
     xmlns="http://www.w3.org/2000/svg">
    <path d="m11.5589,15.6752h-4.001l-3.001,-11.783c-0.142,-0.543,-0.444,-1.022,-0.889,-1.248c-1.11,-0.567,-2.334,-1.019,-3.668,-1.247v-0.453h6.446c0.889,0,1.557,0.681,1.668,1.473l1.557,8.499l3.999,-9.972h3.89l-6.001,14.731zm8.225,0h-3.778l3.111,-14.731h3.779l-3.112,14.731zm8,-10.65c0.111,-0.794,0.778,-1.247,1.556,-1.247c1.224,-0.114,2.556,0.114,3.668,0.679l0.667,-3.171c-1.112,-0.454,-2.335,-0.682,-3.445,-0.682c-3.668,0,-6.336,2.041,-6.336,4.873c0,2.154,1.89,3.285,3.224,3.967c1.444,0.679,2,1.133,1.889,1.812c0,1.02,-1.112,1.473,-2.222,1.473c-1.335,0,-2.669,-0.34,-3.89,-0.907l-0.667,3.174c1.334,0.565,2.778,0.793,4.112,0.793c4.112,0.112,6.668,-1.927,6.668,-4.986c0,-3.854,-5.224,-4.079,-5.224,-5.778zm18.449,10.65l-3,-14.731h-3.223c-0.667,0,-1.335,0.454,-1.557,1.133l-5.556,13.598h3.89l0.776,-2.152h4.78l0.445,2.152h3.445zm-5.666,-10.764l1.11,5.552h-3.112l2.002,-5.552z"
          fill="#1C1C1C"/>
</svg>
